<?xml version="1.0" encoding="UTF-8"?>
<!DOCTYPE svg PUBLIC "-//W3C//DTD SVG 1.1//EN" "http://www.w3.org/Graphics/SVG/1.1/DTD/svg11.dtd">
<svg xmlns="http://www.w3.org/2000/svg" version="1.1" width="496px" height="496px" style="shape-rendering:geometricPrecision; text-rendering:geometricPrecision; image-rendering:optimizeQuality; fill-rule:evenodd; clip-rule:evenodd" xmlns:xlink="http://www.w3.org/1999/xlink">
<g><path style="opacity:0.976" fill="#b96f36" d="M 328.5,-0.5 C 349.167,-0.5 369.833,-0.5 390.5,-0.5C 392.141,6.90185 394.475,14.0685 397.5,21C 403.172,23.1698 408.838,25.3364 414.5,27.5C 421.339,23.7428 428.339,20.5761 435.5,18C 449.681,32.0139 463.681,46.1806 477.5,60.5C 474.149,67.2029 470.815,73.8696 467.5,80.5C 469.664,86.1617 471.83,91.8284 474,97.5C 480.931,100.525 488.098,102.859 495.5,104.5C 495.5,125.167 495.5,145.833 495.5,166.5C 488.098,168.141 480.931,170.475 474,173.5C 471.83,179.172 469.664,184.838 467.5,190.5C 470.815,197.13 474.149,203.797 477.5,210.5C 467.848,220.653 458.014,230.653 448,240.5C 447.667,283.167 447.333,325.833 447,368.5C 442.833,384.667 432.667,394.833 416.5,399C 379.168,399.5 341.835,399.667 304.5,399.5C 306.249,412.505 312.249,423.005 322.5,431C 359.64,425.809 374.474,441.642 367,478.5C 363.981,486.684 358.481,492.351 350.5,495.5C 265.833,495.5 181.167,495.5 96.5,495.5C 88.5191,492.351 83.0191,486.684 80,478.5C 72.5263,441.642 87.3596,425.809 124.5,431C 134.751,423.005 140.751,412.505 142.5,399.5C 105.165,399.667 67.8318,399.5 30.5,399C 14.3186,394.651 3.98523,384.484 -0.5,368.5C -0.5,282.5 -0.5,196.5 -0.5,110.5C 3.98523,94.5156 14.3186,84.3489 30.5,80C 104.167,79.6667 177.833,79.3333 251.5,79C 247.346,72.861 244.179,66.361 242,59.5C 256.014,45.3192 270.181,31.3192 284.5,17.5C 291.203,20.8515 297.87,24.1848 304.5,27.5C 310.162,25.3364 315.828,23.1698 321.5,21C 324.525,14.0685 326.859,6.90185 328.5,-0.5 Z M 341.5,15.5 C 353.5,15.5 365.5,15.5 377.5,15.5C 379.2,22.0996 381.2,28.5996 383.5,35C 394.414,37.4139 404.581,41.5806 414,47.5C 419.651,44.5074 425.318,41.5074 431,38.5C 439.5,47 448,55.5 456.5,64C 453.493,69.6824 450.493,75.3491 447.5,81C 453.029,90.5803 457.195,100.747 460,111.5C 466.4,113.8 472.9,115.8 479.5,117.5C 479.5,129.5 479.5,141.5 479.5,153.5C 472.9,155.2 466.4,157.2 460,159.5C 457.195,170.253 453.029,180.42 447.5,190C 450.493,195.651 453.493,201.318 456.5,207C 448,215.5 439.5,224 431,232.5C 425.318,229.493 419.651,226.493 414,223.5C 404.42,229.029 394.253,233.195 383.5,236C 381.2,242.4 379.2,248.9 377.5,255.5C 365.5,255.5 353.5,255.5 341.5,255.5C 339.8,248.9 337.8,242.4 335.5,236C 324.747,233.195 314.58,229.029 305,223.5C 299.349,226.493 293.682,229.493 288,232.5C 279.5,224 271,215.5 262.5,207C 265.507,201.318 268.507,195.651 271.5,190C 265.971,180.42 261.805,170.253 259,159.5C 252.6,157.2 246.1,155.2 239.5,153.5C 239.5,141.5 239.5,129.5 239.5,117.5C 246.1,115.8 252.6,113.8 259,111.5C 261.805,100.747 265.971,90.5803 271.5,81C 268.507,75.3491 265.507,69.6824 262.5,64C 271,55.5 279.5,47 288,38.5C 293.682,41.5074 299.349,44.5074 305,47.5C 314.58,41.9714 324.747,37.8047 335.5,35C 337.8,28.5996 339.8,22.0996 341.5,15.5 Z M 358.5,63.5 C 396.789,66.2896 420.622,86.2896 430,123.5C 433.075,167.081 413.575,194.581 371.5,206C 334.95,209.475 308.783,194.642 293,161.5C 281.355,121.977 293.188,91.8108 328.5,71C 338.181,66.6372 348.181,64.1372 358.5,63.5 Z M 39.5,95.5 C 108.17,95.1667 176.837,95.5 245.5,96.5C 244.91,97.7989 243.91,98.6322 242.5,99C 236.283,101.304 229.949,103.137 223.5,104.5C 223.5,106.833 223.5,109.167 223.5,111.5C 162.832,111.333 102.166,111.5 41.5,112C 37,113.833 33.8333,117 32,121.5C 31.3333,189.5 31.3333,257.5 32,325.5C 33.8333,330 37,333.167 41.5,335C 162.833,335.667 284.167,335.667 405.5,335C 410,333.167 413.167,330 415,325.5C 415.333,298.167 415.667,270.833 416,243.5C 420.706,246.367 425.54,249.034 430.5,251.5C 431.667,287.495 431.833,323.495 431,359.5C 429.167,373.333 421.333,381.167 407.5,383C 284.833,383.667 162.167,383.667 39.5,383C 28.2046,382.037 20.7046,376.204 17,365.5C 15.8499,323.531 15.3499,281.531 15.5,239.5C 15.3499,197.469 15.8499,155.469 17,113.5C 20.8808,102.769 28.3808,96.7686 39.5,95.5 Z M 352.5,112.5 C 366.981,110.318 376.814,115.985 382,129.5C 384.366,143.606 378.866,153.106 365.5,158C 351.394,160.366 341.894,154.866 337,141.5C 334.831,127.834 339.998,118.167 352.5,112.5 Z M 47.5,127.5 C 106.167,127.5 164.833,127.5 223.5,127.5C 223.5,140.5 223.5,153.5 223.5,166.5C 229.949,167.863 236.283,169.696 242.5,172C 244.333,172.5 245.5,173.667 246,175.5C 247.837,180.505 249.67,185.505 251.5,190.5C 247.743,197.339 244.576,204.339 242,211.5C 256.014,225.681 270.181,239.681 284.5,253.5C 291.203,250.149 297.87,246.815 304.5,243.5C 310.162,245.664 315.828,247.83 321.5,250C 324.733,256.867 327.067,264.034 328.5,271.5C 349.167,271.5 369.833,271.5 390.5,271.5C 392.174,265.141 394.007,258.807 396,252.5C 396.368,251.09 397.201,250.09 398.5,249.5C 399.5,272.824 399.833,296.157 399.5,319.5C 282.167,319.5 164.833,319.5 47.5,319.5C 47.5,255.5 47.5,191.5 47.5,127.5 Z M 87.5,191.5 C 95.5,191.5 103.5,191.5 111.5,191.5C 111.5,202.167 111.5,212.833 111.5,223.5C 127.5,223.5 143.5,223.5 159.5,223.5C 159.5,212.833 159.5,202.167 159.5,191.5C 167.507,191.334 175.507,191.5 183.5,192C 186.494,192.406 188.661,193.906 190,196.5C 191.641,224.105 191.974,251.771 191,279.5C 190.5,284 188,286.5 183.5,287C 151.5,287.667 119.5,287.667 87.5,287C 84.5056,286.594 82.339,285.094 81,282.5C 79.3591,254.895 79.0258,227.229 80,199.5C 80.6804,194.989 83.1804,192.323 87.5,191.5 Z M 127.5,191.5 C 132.833,191.5 138.167,191.5 143.5,191.5C 143.5,196.833 143.5,202.167 143.5,207.5C 138.167,207.5 132.833,207.5 127.5,207.5C 127.5,202.167 127.5,196.833 127.5,191.5 Z M 159.5,399.5 C 202.167,399.5 244.833,399.5 287.5,399.5C 288.285,411.021 291.951,421.521 298.5,431C 248.5,431.667 198.5,431.667 148.5,431C 155.049,421.521 158.715,411.021 159.5,399.5 Z M 103.5,447.5 C 183.501,447.333 263.501,447.5 343.5,448C 348,448.5 350.5,451 351,455.5C 352.113,462.715 351.446,469.715 349,476.5C 347.352,477.717 345.519,478.55 343.5,479C 263.5,479.667 183.5,479.667 103.5,479C 99,478.5 96.5,476 96,471.5C 95.1304,465.083 95.4638,458.749 97,452.5C 98.5631,449.977 100.73,448.31 103.5,447.5 Z"/></g>
<g><path style="opacity:0.928" fill="#b96f36" d="M 345.5,47.5 C 391.95,43.8498 424.45,63.1832 443,105.5C 455.241,147.773 444.074,182.273 409.5,209C 382.493,225.233 354.159,227.9 324.5,217C 283.41,195.99 266.243,162.49 273,116.5C 283.086,78.578 307.253,55.578 345.5,47.5 Z M 358.5,63.5 C 348.181,64.1372 338.181,66.6372 328.5,71C 293.188,91.8108 281.355,121.977 293,161.5C 308.783,194.642 334.95,209.475 371.5,206C 413.575,194.581 433.075,167.081 430,123.5C 420.622,86.2896 396.789,66.2896 358.5,63.5 Z M 352.5,112.5 C 339.998,118.167 334.831,127.834 337,141.5C 341.894,154.866 351.394,160.366 365.5,158C 378.866,153.106 384.366,143.606 382,129.5C 376.814,115.985 366.981,110.318 352.5,112.5 Z"/></g>
<g><path style="opacity:0.927" fill="#b96f36" d="M 350.5,95.5 C 373.329,92.5469 389.163,101.547 398,122.5C 403.718,146.897 395.218,164.064 372.5,174C 348.103,179.718 330.936,171.218 321,148.5C 315.424,121.977 325.257,104.31 350.5,95.5 Z M 352.5,112.5 C 339.998,118.167 334.831,127.834 337,141.5C 341.894,154.866 351.394,160.366 365.5,158C 378.866,153.106 384.366,143.606 382,129.5C 376.814,115.985 366.981,110.318 352.5,112.5 Z"/></g>
<g><path style="opacity:1" fill="#b96f36" d="M 63.5,143.5 C 68.8333,143.5 74.1667,143.5 79.5,143.5C 79.5,148.833 79.5,154.167 79.5,159.5C 74.1667,159.5 68.8333,159.5 63.5,159.5C 63.5,154.167 63.5,148.833 63.5,143.5 Z"/></g>
<g><path style="opacity:1" fill="#b96f36" d="M 95.5,143.5 C 132.833,143.5 170.167,143.5 207.5,143.5C 207.5,148.833 207.5,154.167 207.5,159.5C 170.167,159.5 132.833,159.5 95.5,159.5C 95.5,154.167 95.5,148.833 95.5,143.5 Z"/></g>
<g><path style="opacity:0.987" fill="#b96f36" d="M 80.5,175.5 C 117.168,175.333 153.835,175.5 190.5,176C 198.667,178.833 204.167,184.333 207,192.5C 207.667,223.833 207.667,255.167 207,286.5C 204.167,294.667 198.667,300.167 190.5,303C 153.833,303.667 117.167,303.667 80.5,303C 72.3333,300.167 66.8333,294.667 64,286.5C 63.3333,255.167 63.3333,223.833 64,192.5C 67.0191,184.316 72.5191,178.649 80.5,175.5 Z M 87.5,191.5 C 83.1804,192.323 80.6804,194.989 80,199.5C 79.0258,227.229 79.3591,254.895 81,282.5C 82.339,285.094 84.5056,286.594 87.5,287C 119.5,287.667 151.5,287.667 183.5,287C 188,286.5 190.5,284 191,279.5C 191.974,251.771 191.641,224.105 190,196.5C 188.661,193.906 186.494,192.406 183.5,192C 175.507,191.5 167.507,191.334 159.5,191.5C 159.5,202.167 159.5,212.833 159.5,223.5C 143.5,223.5 127.5,223.5 111.5,223.5C 111.5,212.833 111.5,202.167 111.5,191.5C 103.5,191.5 95.5,191.5 87.5,191.5 Z M 127.5,191.5 C 127.5,196.833 127.5,202.167 127.5,207.5C 132.833,207.5 138.167,207.5 143.5,207.5C 143.5,202.167 143.5,196.833 143.5,191.5C 138.167,191.5 132.833,191.5 127.5,191.5 Z"/></g>
<g><path style="opacity:1" fill="#b96f36" d="M 303.5,287.5 C 308.833,287.5 314.167,287.5 319.5,287.5C 319.5,292.833 319.5,298.167 319.5,303.5C 314.167,303.5 308.833,303.5 303.5,303.5C 303.5,298.167 303.5,292.833 303.5,287.5 Z"/></g>
<g><path style="opacity:1" fill="#b96f36" d="M 335.5,287.5 C 340.833,287.5 346.167,287.5 351.5,287.5C 351.5,292.833 351.5,298.167 351.5,303.5C 346.167,303.5 340.833,303.5 335.5,303.5C 335.5,298.167 335.5,292.833 335.5,287.5 Z"/></g>
<g><path style="opacity:1" fill="#b96f36" d="M 367.5,287.5 C 372.833,287.5 378.167,287.5 383.5,287.5C 383.5,292.833 383.5,298.167 383.5,303.5C 378.167,303.5 372.833,303.5 367.5,303.5C 367.5,298.167 367.5,292.833 367.5,287.5 Z"/></g>
<g><path style="opacity:1" fill="#b96f36" d="M 319.5,351.5 C 324.833,351.5 330.167,351.5 335.5,351.5C 335.5,356.833 335.5,362.167 335.5,367.5C 330.167,367.5 324.833,367.5 319.5,367.5C 319.5,362.167 319.5,356.833 319.5,351.5 Z"/></g>
<g><path style="opacity:1" fill="#b96f36" d="M 351.5,351.5 C 356.833,351.5 362.167,351.5 367.5,351.5C 367.5,356.833 367.5,362.167 367.5,367.5C 362.167,367.5 356.833,367.5 351.5,367.5C 351.5,362.167 351.5,356.833 351.5,351.5 Z"/></g>
<g><path style="opacity:1" fill="#b96f36" d="M 383.5,351.5 C 388.833,351.5 394.167,351.5 399.5,351.5C 399.5,356.833 399.5,362.167 399.5,367.5C 394.167,367.5 388.833,367.5 383.5,367.5C 383.5,362.167 383.5,356.833 383.5,351.5 Z"/></g>
</svg>
